Coordinates
version=1
nRows=8
nColumns=40
inDegrees=yes

Units are S.I. units (second, meters, Newtons, ...)
Angles are in degrees.

endheader
time	pelvis_tilt	pelvis_list	pelvis_rotation	pelvis_tx	pelvis_ty	pelvis_tz	hip_flexion_r	hip_adduction_r	hip_rotation_r	knee_angle_r	knee_angle_r_beta	ankle_angle_r	subtalar_angle_r	mtp_angle_r	hip_flexion_l	hip_adduction_l	hip_rotation_l	knee_angle_l	knee_angle_l_beta	ankle_angle_l	subtalar_angle_l	mtp_angle_l	lumbar_extension	lumbar_bending	lumbar_rotation	arm_flex_r	arm_add_r	arm_rot_r	elbow_flex_r	pro_sup_r	wrist_flex_r	wrist_dev_r	arm_flex_l	arm_add_l	arm_rot_l	elbow_flex_l	pro_sup_l	wrist_flex_l	wrist_dev_l
     49.31000000	     -6.78912426	     -6.74766786	      0.77206250	      0.91650213	      0.92968812	      0.50439616	     14.29787206	      5.64457348	    -18.83720236	     15.33794404	     15.33794404	      9.67112157	      7.43023351	     -0.75789204	     36.20191680	    -13.53010194	      3.24527323	     73.13714713	     73.13714713	      5.20263409	    -15.80914144	      4.35835795	    -11.65501109	      6.38654660	      4.84809501	     22.85215004	    -15.18762011	      0.83599538	     58.86827166	     45.30960960	      0.00000000	      0.00000000	      1.90359830	     -5.63692656	     -4.82503952	     34.23322625	     45.82357385	      0.00000000	      0.00000000
     49.32085714	     -6.82582413	     -6.78386362	      0.71983402	      0.91536892	      0.93013509	      0.50491579	     13.70564404	      5.74701496	    -18.91008244	     15.06649656	     15.06649656	      9.86982784	      7.97194259	     -0.82626774	     37.48719379	    -13.61875666	      3.07077922	     72.17470059	     72.17470059	      5.36632873	    -15.86020543	      4.42740983	    -11.71940857	      6.47016765	      4.81233099	     25.20750035	    -14.99268474	      0.93618914	     60.31161513	     45.26858668	      0.00000000	      0.00000000	      0.44133915	     -5.90031193	     -4.70031094	     32.73165013	     45.79383010	      0.00000000	      0.00000000
     49.33171429	     -6.85171147	     -6.82183991	      0.67595548	      0.91426043	      0.93054902	      0.50540930	     13.10376349	      5.86382212	    -18.91631945	     14.77412558	     14.77412558	     10.03507484	      8.37348286	     -0.89183553	     38.64859376	    -13.67197968	      2.91442417	     71.05351059	     71.05351059	      5.47391880	    -15.97186304	      4.58993205	    -11.83319421	      6.55370557	      4.85292337	     27.52224072	    -14.93234008	      1.32522574	     61.80774070	     45.21551493	      0.00000000	      0.00000000	     -0.86561849	     -6.11155452	     -4.53673524	     31.08094801	     45.76418388	      0.00000000	      0.00000000
     49.34257143	     -6.89355103	     -6.86285949	      0.60635656	      0.91317556	      0.93088937	      0.50587081	     12.52288937	      5.98800225	    -18.89598435	     14.47272555	     14.47272555	     10.18558691	      8.74152338	     -0.98040491	     39.69488051	    -13.72876611	      2.72636297	     69.73986558	     69.73986558	      5.57493034	    -16.06378838	      4.91801754	    -11.92105313	      6.63547875	      4.97436772	     29.78256575	    -15.01312164	      1.92686867	     63.30553313	     45.15586061	      0.00000000	      0.00000000	     -2.03292011	     -6.28696167	     -4.32787755	     29.35179377	     45.73339547	      0.00000000	      0.00000000
     49.35342857	     -6.94454977	     -6.90883163	      0.55240953	      0.91213788	      0.93113280	      0.50622932	     11.94989832	      6.10899646	    -18.86986270	     14.16379774	     14.16379774	     10.34074928	      9.10256193	     -1.09025647	     40.64536295	    -13.77552441	      2.52680227	     68.23387701	     68.23387701	      5.67337899	    -16.11476752	      5.45402317	    -11.99527498	      6.74277761	      5.14442530	     31.92306556	    -15.16006862	      2.64275164	     64.82589099	     45.09310299	      0.00000000	      0.00000000	     -3.12430075	     -6.46217927	     -4.06897958	     27.68745714	     45.69888839	      0.00000000	      0.00000000
     49.36428571	     -7.03620529	     -6.94388096	      0.44160015	      0.91112238	      0.93121253	      0.50656152	     11.48240653	      6.21102630	    -18.74539382	     13.97288227	     13.97288227	     10.54863416	      9.31709387	     -1.16034085	     41.48079886	    -13.82501919	      2.28828768	     66.47430310	     66.47430310	      5.69076379	    -16.19799588	      5.83897695	    -12.01273449	      6.76830172	      5.64208138	     33.96002998	    -15.35448104	      2.61235119	     65.84853431	     45.07057365	      0.00000000	      0.00000000	     -4.25132935	     -6.61684926	     -4.01300589	     26.95419070	     45.67702220	      0.00000000	      0.00000000
     49.37514286	     -7.03649509	     -6.98303500	      0.41043909	      0.91030621	      0.93140631	      0.50663877	     10.77029783	      6.33332343	    -18.73078104	     13.51342257	     13.51342257	     10.70199587	      9.72895457	     -1.19761372	     42.06849214	    -13.77821769	      2.13399554	     64.43152291	     64.43152291	      5.72694460	    -16.31856642	      6.51925455	    -12.12806285	      6.89575119	      5.43913973	     35.99408820	    -15.03924202	      3.11783850	     67.71607111	     45.00242625	      0.00000000	      0.00000000	     -5.58051555	     -6.85646548	     -3.76211001	     25.81176890	     45.62525875	      0.00000000	      0.00000000
     49.38600000	     -7.14150455	     -7.04200372	      0.33873785	      0.90944426	      0.93130067	      0.50662360	     10.20460959	      6.45262902	    -18.73102888	     13.12604669	     13.12604669	     10.86657502	     10.14788176	     -1.26555197	     42.64854494	    -13.75396125	      1.98418843	     62.14875965	     62.14875965	      5.84941474	    -16.29803139	      7.24008992	    -12.11296139	      6.98130142	      5.56779160	     37.82850991	    -15.09695240	      3.71562238	     69.52943313	     44.93484059	      0.00000000	      0.00000000	     -6.76755836	     -7.04796157	     -3.42362340	     25.07502614	     45.55728739	      0.00000000	      0.00000000
